<svg width="86" height="86" viewBox="0 0 86 86" fill="none" xmlns="http://www.w3.org/2000/svg">
<path d="M43.5292 38.5488C43.4663 38.4685 43.386 38.4036 43.2943 38.3589C43.2027 38.3142 43.102 38.291 43.0001 38.291C42.8981 38.291 42.7974 38.3142 42.7058 38.3589C42.6141 38.4036 42.5338 38.4685 42.471 38.5488L33.0647 50.4494C32.9872 50.5484 32.9391 50.6673 32.9259 50.7923C32.9127 50.9174 32.935 51.0437 32.9902 51.1567C33.0454 51.2697 33.1312 51.3649 33.238 51.4314C33.3447 51.4979 33.468 51.5331 33.5938 51.5328H39.8003V71.8906C39.8003 72.2601 40.1026 72.5625 40.4721 72.5625H45.5112C45.8807 72.5625 46.1831 72.2601 46.1831 71.8906V51.5412H52.4063C52.969 51.5412 53.2797 50.8945 52.9354 50.4578L43.5292 38.5488Z" fill="black"/>
<path d="M68.1449 30.7971C64.2984 20.6518 54.4975 13.4375 43.0168 13.4375C31.5361 13.4375 21.7351 20.6434 17.8887 30.7887C10.6912 32.6783 5.37499 39.2375 5.37499 47.0312C5.37499 56.3115 12.8916 63.8281 22.1635 63.8281H25.5312C25.9008 63.8281 26.2031 63.5258 26.2031 63.1562V58.1172C26.2031 57.7477 25.9008 57.4453 25.5312 57.4453H22.1635C19.3332 57.4453 16.6709 56.3199 14.6889 54.2791C12.7152 52.2467 11.6654 49.5088 11.7578 46.6701C11.8334 44.4529 12.5892 42.3701 13.9582 40.6148C15.3607 38.826 17.326 37.5242 19.5096 36.9447L22.6926 36.1133L23.86 33.0394C24.5822 31.1246 25.59 29.3357 26.8582 27.7148C28.1102 26.1083 29.5932 24.696 31.259 23.524C34.7107 21.0969 38.7756 19.8119 43.0168 19.8119C47.258 19.8119 51.3228 21.0969 54.7746 23.524C56.4459 24.6998 57.924 26.1107 59.1754 27.7148C60.4435 29.3357 61.4514 31.133 62.1736 33.0394L63.3326 36.1049L66.5072 36.9447C71.0592 38.1709 74.2422 42.3113 74.2422 47.0312C74.2422 49.8111 73.1588 52.4314 71.1935 54.3967C70.2298 55.3661 69.0833 56.1347 67.8204 56.658C66.5576 57.1813 65.2035 57.4489 63.8365 57.4453H60.4687C60.0992 57.4453 59.7969 57.7477 59.7969 58.1172V63.1562C59.7969 63.5258 60.0992 63.8281 60.4687 63.8281H63.8365C73.1084 63.8281 80.625 56.3115 80.625 47.0312C80.625 39.2459 75.3256 32.6951 68.1449 30.7971Z" fill="black"/>
</svg>
