<svg width="65" height="55" viewBox="0 0 65 55" fill="none" xmlns="http://www.w3.org/2000/svg">
<path d="M56.875 22.9167H18.9583V16.3006C18.9583 14.0158 20.7946 11.8938 23.4569 11.5225C24.2345 11.4105 25.0316 11.4434 25.7927 11.6189C26.5538 11.7943 27.2605 12.1081 27.8636 12.5383C28.4667 12.9685 28.9516 13.5048 29.2846 14.1099C29.6176 14.715 29.7906 15.3742 29.7917 16.0417H35.2083C35.207 14.7613 34.889 13.4954 34.2747 12.3253C33.6603 11.1552 32.7634 10.1069 31.6414 9.24776C30.5195 8.38865 29.1974 7.73778 27.7603 7.33702C26.3232 6.93627 24.8028 6.7945 23.2971 6.92084C17.6664 7.38376 13.5417 11.6623 13.5417 16.4496V22.9167H8.12499C7.4067 22.9167 6.71782 23.1581 6.20991 23.5879C5.702 24.0177 5.41666 24.6005 5.41666 25.2083V29.7917C5.41666 35.7638 9.95041 40.8444 16.25 42.7396V50.4167H21.6667V43.5417H43.3333V50.4167H48.75V42.7396C55.0496 40.8444 59.5833 35.7638 59.5833 29.7917V25.2083C59.5833 24.6005 59.298 24.0177 58.7901 23.5879C58.2822 23.1581 57.5933 22.9167 56.875 22.9167Z" fill="black"/>
</svg>
