<svg width="55" height="48" viewBox="0 0 55 48" fill="none" xmlns="http://www.w3.org/2000/svg">
<path d="M27.5 23C25.9805 23 24.5233 22.4732 23.4489 21.5355C22.3744 20.5979 21.7708 19.3261 21.7708 18C21.7708 16.6739 22.3744 15.4021 23.4489 14.4645C24.5233 13.5268 25.9805 13 27.5 13C29.0195 13 30.4767 13.5268 31.5511 14.4645C32.6256 15.4021 33.2292 16.6739 33.2292 18C33.2292 18.6566 33.081 19.3068 32.7931 19.9134C32.5052 20.52 32.0831 21.0712 31.5511 21.5355C31.0191 21.9998 30.3876 22.3681 29.6925 22.6194C28.9974 22.8707 28.2524 23 27.5 23ZM27.5 4C23.2455 4 19.1652 5.475 16.1568 8.1005C13.1484 10.726 11.4583 14.287 11.4583 18C11.4583 28.5 27.5 44 27.5 44C27.5 44 43.5417 28.5 43.5417 18C43.5417 14.287 41.8516 10.726 38.8432 8.1005C35.8348 5.475 31.7545 4 27.5 4Z" fill="black"/>
</svg>
