<svg width="71" height="48" viewBox="0 0 71 48" fill="none" xmlns="http://www.w3.org/2000/svg">
<path d="M35.5 4C37.0692 4 38.5741 4.42143 39.6837 5.17157C40.7933 5.92172 41.4167 6.93913 41.4167 8C41.4167 9.06087 40.7933 10.0783 39.6837 10.8284C38.5741 11.5786 37.0692 12 35.5 12C33.9308 12 32.4259 11.5786 31.3163 10.8284C30.2067 10.0783 29.5833 9.06087 29.5833 8C29.5833 6.93913 30.2067 5.92172 31.3163 5.17157C32.4259 4.42143 33.9308 4 35.5 4ZM31.0625 14H39.9375C41.5067 14 43.0116 14.4214 44.1212 15.1716C45.2308 15.9217 45.8542 16.9391 45.8542 18V29H41.4167V44H29.5833V29H25.1458V18C25.1458 16.9391 25.7692 15.9217 26.8788 15.1716C27.9884 14.4214 29.4933 14 31.0625 14Z" fill="black"/>
</svg>
