<svg width="60" height="48" viewBox="0 0 60 48" fill="none" xmlns="http://www.w3.org/2000/svg">
<path d="M59.0979 19.8143L32.0366 0.542033C30.8338 -0.180678 29.3304 -0.180678 28.1277 0.542033L1.06634 19.8143C-0.13639 20.7779 -0.437072 22.2233 0.765656 23.187C1.96838 24.1506 3.77248 24.3915 4.9752 23.4279L5.87725 22.4642V45.591C5.87725 47.0364 7.07998 48 8.88407 48H50.9795C52.7836 48 53.9864 47.0364 53.9864 45.591V22.4642L54.8884 23.187C56.0911 24.1506 57.8952 23.9097 59.0979 22.9461C60.3007 22.2233 60.3007 20.537 59.0979 19.8143ZM29.9318 21.5006C34.442 21.5006 38.0502 24.3915 38.0502 28.005C38.0502 31.6186 34.442 34.5094 29.9318 34.5094C25.4216 34.5094 21.8134 31.6186 21.8134 28.005C21.8134 24.3915 25.4216 21.5006 29.9318 21.5006ZM14.8977 43.1819C14.8977 42.941 14.8977 42.941 15.1984 42.7001C21.8134 36.1957 33.8407 34.9912 41.9591 40.2911C43.1618 41.0138 44.0639 41.7365 44.9659 42.7001C44.9659 42.7001 44.9659 42.941 45.2666 43.1819H14.8977Z" fill="black"/>
</svg>
